Coordinates
version=1
nRows=16
nColumns=33
inDegrees=yes

Units are S.I. units (second, meters, Newtons, ...)
Angles are in degrees.

endheader
time	ground_thorax_rot_x	ground_thorax_rot_y	ground_thorax_rot_z	ground_thorax_tx	ground_thorax_ty	ground_thorax_tz	clav_prot_r	clav_elev_r	scapula_abduction_r	scapula_elevation_r	scapula_upward_rot_r	scapula_winging_r	shoulder_elv_r	plane_of_elev_r	axial_rot_r	elbow_flexion_r	pro_sup_r	wrist_flex_r	wrist_dev_r	clav_prot_l	clav_elev_l	scapula_abduction_l	scapula_elevation_l	scapula_upward_rot_l	scapula_winging_l	shoulder_elv_l	plane_of_elev_l	axial_rot_l	elbow_flexion_l	pro_sup_l	wrist_flex_l	wrist_dev_l	
11.6700	32.667494	17.849373	29.272319	-30.593696	835.930554	-51.770917	12.086227	35.809644	28.471304	45.000000	-39.906546	1356.164269	1149.935673	23.506529	-179.230666	1437.314952	514.901402	15.502489	15.151547	-6.282257	-45.000000	-44.999922	45.000000	-45.000000	5137.378188	-3508.584341	18.303584	-180.000000	2160.656756	-167.795284	11.886664	-18.064493	
11.6800	32.690436	17.770462	29.214063	-28.385531	835.316254	-51.752037	12.084676	35.912942	28.602364	45.000000	-39.604425	1356.249065	1149.841414	23.531838	-179.428958	1437.263692	514.910981	15.395931	15.224521	-6.315203	-45.000000	-44.999965	45.000000	-45.000000	5137.140327	-3508.601793	18.343729	-180.000000	2160.611746	-168.281033	11.982293	-17.909366	
11.6900	32.702742	17.718084	29.181523	-26.156611	834.697938	-51.728084	12.071113	36.011630	28.722655	45.000000	-39.297286	1356.347478	1149.757769	23.536546	-179.598088	1437.216367	514.959565	15.287548	15.295229	-6.356737	-45.000000	-45.000000	45.000000	-45.000000	5136.899694	-3508.614829	18.366379	-180.000000	2160.577604	-168.719353	12.081809	-17.756249	
11.7000	32.718615	17.682588	29.154700	-23.907258	834.073931	-51.698125	12.073496	36.123728	28.842461	45.000000	-38.966256	1356.431536	1149.664324	23.537957	-179.730168	1437.175661	515.039876	15.183787	15.351188	-6.403527	-45.000000	-45.000000	45.000000	-45.000000	5136.653175	-3508.636005	18.378252	-180.000000	2160.548001	-169.108670	12.169872	-17.609668	
11.7100	32.737765	17.658509	29.127909	-21.638044	833.442526	-51.660955	12.077789	36.241814	28.962262	45.000000	-38.620293	1356.509690	1149.565935	23.532873	-179.826759	1437.137652	515.151631	15.083118	15.400180	-6.456525	-45.000000	-45.000000	45.000000	-45.000000	5136.406418	-3508.657705	18.384888	-180.000000	2160.516362	-169.448021	12.249979	-17.472192	
11.7200	32.770593	17.638662	29.088373	-19.349401	832.801728	-51.615236	12.099716	36.376192	29.088343	45.000000	-38.249908	1356.568190	1149.456226	23.533217	-179.888987	1437.106628	515.292219	14.988734	15.435379	-6.515976	-45.000000	-45.000000	45.000000	-45.000000	5136.152758	-3508.687578	18.387113	-180.000000	2160.482655	-169.741405	12.315501	-17.344849	
11.7300	32.798222	17.633106	29.060179	-17.042576	832.149503	-51.559641	12.090228	36.497659	29.216311	45.000000	-37.887432	1356.643561	1149.354746	23.509207	-179.932007	1437.073264	515.464334	14.895241	15.473746	-6.570579	-45.000000	-45.000000	45.000000	-45.000000	5135.908270	-3508.711333	18.389844	-180.000000	2160.454786	-169.982901	12.384236	-17.222336	
11.7400	32.837913	17.629865	29.020018	-14.718836	831.483582	-51.492938	12.088431	36.625320	29.347162	45.000000	-37.515798	1356.712491	1149.252023	23.487301	-179.957342	1437.041163	515.666008	14.805726	15.507458	-6.628916	-45.000000	-45.000000	45.000000	-45.000000	5135.659443	-3508.740086	18.390078	-180.000000	2160.426474	-170.174940	12.445569	-17.108324	
11.7500	32.885098	17.631649	28.972524	-12.380129	830.801904	-51.414079	12.081878	36.750597	29.484334	45.000000	-37.147149	1356.779495	1149.148890	23.463194	-179.979257	1437.012291	515.900665	14.719667	15.538416	-6.692477	-45.000000	-45.000000	45.000000	-45.000000	5135.411361	-3508.768692	18.389160	-180.000000	2160.397486	-170.319434	12.502570	-17.002544	
11.7600	32.954545	17.627378	28.898056	-10.028146	830.102621	-51.322238	12.114664	36.897395	29.633065	45.000000	-36.757723	1356.819525	1149.028572	23.458500	-179.992099	1436.995034	516.171113	14.641077	15.556012	-6.776058	-45.000000	-45.000000	45.000000	-45.000000	5135.149428	-3508.806908	18.380305	-180.000000	2160.362481	-170.425567	12.543429	-16.907830	
11.7700	33.030048	17.628475	28.817596	-7.664927	829.384619	-51.216889	12.141581	37.042316	29.788017	45.000000	-36.371323	1356.857545	1148.904203	23.450022	-180.000000	1436.983732	516.479195	14.568160	15.568535	-6.866830	-45.000000	-45.000000	45.000000	-45.000000	5134.887861	-3508.846065	18.369623	-180.000000	2160.327562	-170.495729	12.581109	-16.819598	
11.7800	33.124348	17.622418	28.712376	-5.292117	828.647416	-51.097838	12.203571	37.208369	29.953176	45.000000	-35.965006	1356.874128	1148.762139	23.454422	-180.000000	1436.983346	516.823459	14.502548	15.570770	-6.976325	-45.000000	-45.000000	45.000000	-45.000000	5134.611093	-3508.891755	18.351635	-180.000000	2160.289514	-170.538729	12.605063	-16.739039	
11.7900	33.224058	17.620932	28.598710	-2.911813	827.891474	-50.965311	12.264683	37.376537	30.121820	45.000000	-35.558962	1356.887387	1148.613560	23.457256	-180.000000	1436.993979	517.202518	14.442837	15.565918	-7.091502	-45.000000	-45.000000	45.000000	-45.000000	5134.331437	-3508.938507	18.332014	-180.000000	2160.250566	-170.560291	12.623041	-16.663222	
11.8000	33.327125	17.621843	28.477955	-0.526194	827.117872	-50.819989	12.321334	37.545233	30.289400	45.000000	-35.154885	1356.906794	1148.463528	23.453532	-180.000000	1437.010780	517.614983	14.387376	15.559771	-7.209360	-45.000000	-45.000000	45.000000	-45.000000	5134.048350	-3508.984163	18.311238	-180.000000	2160.214440	-170.563653	12.638443	-16.589185	
11.8100	33.422619	17.635365	28.363943	1.861797	826.328216	-50.663053	12.337744	37.695727	30.447890	45.000000	-34.770317	1356.952201	1148.327556	23.425473	-180.000000	1437.027924	518.056186	14.334071	15.558273	-7.315573	-45.000000	-45.000000	45.000000	-45.000000	5133.773109	-3509.025617	18.296071	-180.000000	2160.182036	-170.548209	12.661032	-16.514743	
11.8200	33.521204	17.649052	28.241522	4.248644	825.524193	-50.496159	12.347164	37.844991	30.603282	45.000000	-34.389084	1357.008770	1148.195583	23.385904	-180.000000	1437.046090	518.523904	14.283366	15.559337	-7.422679	-45.000000	-45.000000	45.000000	-45.000000	5133.494348	-3509.065594	18.281528	-180.000000	2160.151110	-170.517292	12.683312	-16.441265	
